<svg id="icon-email" xmlns="http://www.w3.org/2000/svg" viewBox="0 0 64 48">
  <path
    d="M62.25,1.75A5.79,5.79,0,0,1,64,6V42a6,6,0,0,1-6,6H6a5.78,5.78,0,0,1-4.25-1.75A5.78,5.78,0,0,1,0,42V6A5.78,5.78,0,0,1,1.75,1.75,5.79,5.79,0,0,1,6,0H58A5.79,5.79,0,0,1,62.25,1.75ZM6,6v5.13q4.37,3.5,16.88,13.25l1.13,1a30.27,30.27,0,0,0,4,3A7.59,7.59,0,0,0,32,30a7.61,7.61,0,0,0,4-1.62,30.4,30.4,0,0,0,4-3l1.13-1Q53.62,14.75,58,11.13V6ZM58,42V18.75L43.5,30.25A36.36,36.36,0,0,1,38.38,34,12.58,12.58,0,0,1,32,36a13.24,13.24,0,0,1-6.5-2,49.32,49.32,0,0,1-5.12-3.75L6,18.75V42Z"/>
</svg>
