<svg id="icon-person-shield" xmlns="http://www.w3.org/2000/svg" viewBox="0 0 80 64">
  <path
    d="M43.63,52.75A32.3,32.3,0,0,0,52.38,63.5,5.81,5.81,0,0,1,50,64H6a5.79,5.79,0,0,1-4.25-1.75A5.78,5.78,0,0,1,0,58V52.75a16.4,16.4,0,0,1,2.25-8.37,16.62,16.62,0,0,1,6.13-6.12A16.39,16.39,0,0,1,16.75,36h2.13a21.82,21.82,0,0,0,18.25,0h2.13l.88.13v.38A1.11,1.11,0,0,0,40,37,34.7,34.7,0,0,0,43.63,52.75ZM19.94,29.88a15.55,15.55,0,0,1-5.81-5.81A15.85,15.85,0,0,1,12,16a15.86,15.86,0,0,1,2.13-8.06,15.58,15.58,0,0,1,5.81-5.81,16.36,16.36,0,0,1,16.13,0,15.6,15.6,0,0,1,5.81,5.81A15.87,15.87,0,0,1,44,16a15.86,15.86,0,0,1-2.12,8.06,15.58,15.58,0,0,1-5.81,5.81,16.36,16.36,0,0,1-16.12,0Zm59.44,5.25A3.17,3.17,0,0,1,80,37a30.27,30.27,0,0,1-2.87,13.25,26.68,26.68,0,0,1-6.62,8.88,23.22,23.22,0,0,1-7.12,4.63,3.92,3.92,0,0,1-2.75,0,22.51,22.51,0,0,1-7.87-5.25,27.78,27.78,0,0,1-6.25-9.12A30.67,30.67,0,0,1,44,37a3.16,3.16,0,0,1,.63-1.87,3.44,3.44,0,0,1,1.63-1.25l14.38-5.62a3.92,3.92,0,0,1,2.75,0l14.38,5.63A3.46,3.46,0,0,1,79.38,35.13Zm-10,16.5A23.47,23.47,0,0,0,74,38.88L62,34.13V57.75A19.52,19.52,0,0,0,69.38,51.63Z"/>
</svg>
