<svg id="icon-persons-trio" xmlns="http://www.w3.org/2000/svg" viewBox="0 0 80 56">
  <path
    d="M15.38,36a18.5,18.5,0,0,0-3.12,8H4a3.84,3.84,0,0,1-2.81-1.19A3.84,3.84,0,0,1,0,40V36a7.69,7.69,0,0,1,2.38-5.62A7.69,7.69,0,0,1,8,28h8a7.7,7.7,0,0,1,5.63,2.38A17.56,17.56,0,0,0,15.38,36Zm-9-14.37a7.85,7.85,0,0,1,0-11.25A7.69,7.69,0,0,1,12,8a7.7,7.7,0,0,1,5.63,2.38,7.85,7.85,0,0,1,0,11.25A7.69,7.69,0,0,1,12,24,7.68,7.68,0,0,1,6.38,21.63ZM56.81,33.94a14.46,14.46,0,0,1,5.25,5.25A14,14,0,0,1,64,46.38V50a6,6,0,0,1-6,6H22a6,6,0,0,1-6-6V46.38a14,14,0,0,1,1.94-7.19,14.43,14.43,0,0,1,5.25-5.25A14,14,0,0,1,30.38,32h1a19.6,19.6,0,0,0,17.25,0h1A14,14,0,0,1,56.81,33.94ZM33,26.13A14,14,0,0,1,26,14,14,14,0,0,1,33,1.88,14,14,0,0,1,52.13,7a14,14,0,0,1,0,14A14,14,0,0,1,33,26.13Zm44.63,4.25A7.7,7.7,0,0,1,80,36v4a4.06,4.06,0,0,1-4,4H67.75a18.55,18.55,0,0,0-3.12-8,17.57,17.57,0,0,0-6.25-5.62A7.69,7.69,0,0,1,64,28h8A7.7,7.7,0,0,1,77.63,30.38ZM62.38,21.63a7.85,7.85,0,0,1,0-11.25,7.85,7.85,0,0,1,11.25,0,7.85,7.85,0,0,1,0,11.25,7.85,7.85,0,0,1-11.25,0Z"/>
</svg>
