<svg id="icon-home" xmlns="http://www.w3.org/2000/svg" viewBox="0 0 71.89 56">
  <path
    d="M71.88,28.5a1.55,1.55,0,0,1-.31,1.13L68.45,33.5a1.19,1.19,0,0,1-1,.5,1.82,1.82,0,0,1-1.12-.37L36.95,9.5a1.52,1.52,0,0,0-2,0L5.57,33.63A1.83,1.83,0,0,1,4.45,34a1.18,1.18,0,0,1-1-.5L.32,29.63A1.55,1.55,0,0,1,0,28.5a1.58,1.58,0,0,1,.44-1L32.2,1.38A5.63,5.63,0,0,1,35.95,0a6.13,6.13,0,0,1,3.88,1.38l11.13,9.25V1.5A1.44,1.44,0,0,1,51.38.44,1.45,1.45,0,0,1,52.45,0h7a1.45,1.45,0,0,1,1.06.44,1.45,1.45,0,0,1,.44,1.06V18.88l10.5,8.63A1.59,1.59,0,0,1,71.88,28.5ZM60.45,33.88,36.95,14.63a1.52,1.52,0,0,0-2,0L11.45,33.88a1.69,1.69,0,0,0-.5,1.25V53a3,3,0,0,0,3,3h14.5a1.49,1.49,0,0,0,1.5-1.5v-14a1.49,1.49,0,0,1,1.5-1.5h9a1.49,1.49,0,0,1,1.5,1.5v14a1.49,1.49,0,0,0,1.5,1.5h14.5a3,3,0,0,0,3-3V35.13A1.7,1.7,0,0,0,60.45,33.88Z"/>
</svg>
