<svg id="icon-bus" xmlns="http://www.w3.org/2000/svg" viewBox="0 0 64 64">
  <path
    d="M64,19V29a3,3,0,0,1-3,3H60V53a3,3,0,0,1-3,3H56v5a3,3,0,0,1-3,3H47a3,3,0,0,1-3-3V56H20v5a3,3,0,0,1-3,3H11a3,3,0,0,1-3-3V56H7a3,3,0,0,1-3-3V32H3a2.89,2.89,0,0,1-2.12-.87A2.89,2.89,0,0,1,0,29V19a2.89,2.89,0,0,1,.88-2.12A2.9,2.9,0,0,1,3,16H4V10Q4,7.25,7.75,5A33.76,33.76,0,0,1,17.94,1.38,67.39,67.39,0,0,1,32,0,67.42,67.42,0,0,1,46.06,1.38,33.78,33.78,0,0,1,56.25,5Q60,7.25,60,10v6h1a3,3,0,0,1,3,3ZM14,40a5,5,0,1,0,0,10,5,5,0,1,0,0-10Zm40-7V15a3,3,0,0,0-3-3H13a3,3,0,0,0-3,3V33a3,3,0,0,0,3,3H51a3,3,0,0,0,3-3Zm-4,7a4.91,4.91,0,1,0,3.56,1.44A4.84,4.84,0,0,0,50,40Z"/>
</svg>
