<svg id="icon-quote-right" xmlns="http://www.w3.org/2000/svg" viewBox="0 0 32 28">
  <path
    d="M13.13.88A2.9,2.9,0,0,1,14,3V18a9.78,9.78,0,0,1-1.34,5A9.93,9.93,0,0,1,9,26.66,9.79,9.79,0,0,1,4,28H3.5A1.49,1.49,0,0,1,2,26.5v-3A1.49,1.49,0,0,1,3.5,22H4a3.84,3.84,0,0,0,2.81-1.19A3.84,3.84,0,0,0,8,18V14H3a2.89,2.89,0,0,1-2.12-.87A2.89,2.89,0,0,1,0,11V3A2.89,2.89,0,0,1,.88.88,2.89,2.89,0,0,1,3,0h8A2.9,2.9,0,0,1,13.13.88Zm18,0A2.9,2.9,0,0,1,32,3V18a9.78,9.78,0,0,1-1.34,5A9.93,9.93,0,0,1,27,26.66,9.79,9.79,0,0,1,22,28h-.5A1.49,1.49,0,0,1,20,26.5v-3A1.49,1.49,0,0,1,21.5,22H22a4.06,4.06,0,0,0,4-4V14H21a3,3,0,0,1-3-3V3A2.89,2.89,0,0,1,18.88.88,2.89,2.89,0,0,1,21,0h8A2.9,2.9,0,0,1,31.13.88Z"/>
</svg>
