<svg id="icon-quote-left" xmlns="http://www.w3.org/2000/svg" viewBox="0 0 32 28">
  <path
    d="M13.13,14.88A2.9,2.9,0,0,1,14,17v8a3,3,0,0,1-3,3H3a2.89,2.89,0,0,1-2.12-.87A2.89,2.89,0,0,1,0,25V10A9.78,9.78,0,0,1,1.34,5,9.93,9.93,0,0,1,5,1.34,9.78,9.78,0,0,1,10,0h.5a1.45,1.45,0,0,1,1.06.44A1.45,1.45,0,0,1,12,1.5v3A1.49,1.49,0,0,1,10.5,6H10A3.84,3.84,0,0,0,7.19,7.19,3.84,3.84,0,0,0,6,10v4h5A2.9,2.9,0,0,1,13.13,14.88Zm18,0A2.9,2.9,0,0,1,32,17v8a3,3,0,0,1-3,3H21a3,3,0,0,1-3-3V10a9.78,9.78,0,0,1,1.34-5A9.93,9.93,0,0,1,23,1.34,9.78,9.78,0,0,1,28,0h.5a1.45,1.45,0,0,1,1.06.44A1.45,1.45,0,0,1,30,1.5v3A1.49,1.49,0,0,1,28.5,6H28a3.84,3.84,0,0,0-2.81,1.19A3.84,3.84,0,0,0,24,10v4h5A2.9,2.9,0,0,1,31.13,14.88Z"/>
</svg>
