<svg id="icon-link-external" xmlns="http://www.w3.org/2000/svg" viewBox="0 0 18 16">
  <path
    d="M13.25,8.23a.88.88,0,0,1,.53.22A.71.71,0,0,1,14,9v5.5A1.5,1.5,0,0,1,12.5,16H1.5a1.44,1.44,0,0,1-1.06-.44A1.44,1.44,0,0,1,0,14.5V3.5A1.44,1.44,0,0,1,.44,2.44,1.44,1.44,0,0,1,1.5,2h9.25a.69.69,0,0,1,.53.22.69.69,0,0,1,.22.53.69.69,0,0,1-.22.53l-.5.5a.69.69,0,0,1-.53.22H2V14H12V9.5A.69.69,0,0,1,12.22,9l.5-.5A.62.62,0,0,1,13.25,8.23Zm4.53-8A.69.69,0,0,0,17.25,0h-4a.69.69,0,0,0-.53.22.69.69,0,0,0-.22.53.69.69,0,0,0,.22.53l1.12,1.13L6.22,10a.71.71,0,0,0-.22.53.69.69,0,0,0,.22.53l.72.72a.69.69,0,0,0,.53.22A.71.71,0,0,0,8,11.78l7.59-7.62,1.13,1.12A.75.75,0,0,0,18,4.75v-4A.69.69,0,0,0,17.78.22Z"/>
</svg>