<svg id="icon-brand-paypal" xmlns="http://www.w3.org/2000/svg" viewBox="0 0 72 56">
  <path
    d="M72,6V50a6,6,0,0,1-6,6H6a5.79,5.79,0,0,1-4.25-1.75A5.78,5.78,0,0,1,0,50V6A5.78,5.78,0,0,1,1.75,1.75,5.79,5.79,0,0,1,6,0H66a5.79,5.79,0,0,1,4.25,1.75A5.79,5.79,0,0,1,72,6ZM16,22.88a3.05,3.05,0,0,0-1.19-2.62,5,5,0,0,0-3.06-.87h-5A.69.69,0,0,0,6,20L4,32.75a.5.5,0,0,0,.13.38.35.35,0,0,0,.25.13H6.75a.6.6,0,0,0,.44-.19,1.43,1.43,0,0,0,.31-.56L8,29.25q.12-.75,1.88-.62h.38a5.75,5.75,0,0,0,4.25-1.5A5.75,5.75,0,0,0,16,22.88Zm-5.87-.62H9.5c-.25,0-.37.08-.37.25L8.5,25.88H9.63a3.78,3.78,0,0,0,1.81-.37,2,2,0,0,0,.88-1.5q.19-1.12-.37-1.44A3.94,3.94,0,0,0,10.13,22.25ZM26.63,24H24.25q-.5,0-.62,1a3.41,3.41,0,0,0-3-1.25,5.06,5.06,0,0,0-3.75,1.69,5.65,5.65,0,0,0-1.62,4.06,3.85,3.85,0,0,0,4,4,4.26,4.26,0,0,0,1.81-.44A5.41,5.41,0,0,0,22.63,32a2.54,2.54,0,0,0-.12.81c0,.29.13.44.38.44H25q.5,0,.75-.75l1.25-8a.62.62,0,0,0-.12-.31A.42.42,0,0,0,26.5,24Zm-3.37,4.25a2.76,2.76,0,0,1-.75,1.94,2.62,2.62,0,0,1-3.44.31A1.9,1.9,0,0,1,18.5,29a2.79,2.79,0,0,1,2.63-2.62,2.28,2.28,0,0,1,1.56.5A1.75,1.75,0,0,1,23.25,28.25Zm8.38,8,8-11.62V24.5c0-.33-.12-.5-.37-.5H36.88a.73.73,0,0,0-.62.38L33,29.25,31.63,24.5a.81.81,0,0,0-.75-.5H28.63a.44.44,0,0,0-.5.5l2.75,7.75-.12.13a21.29,21.29,0,0,0-2.5,3.88.33.33,0,0,0,.38.38h2.5C31.29,36.63,31.46,36.5,31.63,36.25ZM51.5,22.88a3.05,3.05,0,0,0-1.19-2.62,5,5,0,0,0-3.06-.87h-5a.69.69,0,0,0-.75.63l-2,12.75a.5.5,0,0,0,.13.38.35.35,0,0,0,.25.13H42.5a.49.49,0,0,0,.5-.37l.5-3.62q.12-.75,1.88-.62h.38A5.75,5.75,0,0,0,50,27.13,5.75,5.75,0,0,0,51.5,22.88Zm-5.87-.62H45c-.25,0-.37.08-.37.25l-.5,3.38h1a3.55,3.55,0,0,0,2-.5,1.94,1.94,0,0,0,.75-1.75,1.29,1.29,0,0,0-.75-1.25A6.75,6.75,0,0,0,45.63,22.25ZM62.13,24H59.75q-.5,0-.62,1-.75-1.25-3-1.25a5,5,0,0,0-3.81,1.69,5.76,5.76,0,0,0-1.56,4.06,4,4,0,0,0,1.06,2.88,3.84,3.84,0,0,0,2.94,1.13,4.26,4.26,0,0,0,1.81-.44A3.91,3.91,0,0,0,58,32v.75c0,.33.13.5.38.5H60.5q.5,0,.75-.75l1.25-8a.62.62,0,0,0-.12-.31C62.29,24.06,62.21,24,62.13,24Zm-5.37,2.38a2.76,2.76,0,0,0-1.94.75A2.38,2.38,0,0,0,54,28.94a2,2,0,0,0,.56,1.56A2.62,2.62,0,0,0,58,30.19a2.61,2.61,0,0,0,.75-1.81,1.91,1.91,0,0,0-.56-1.5A2.09,2.09,0,0,0,56.75,26.38ZM68,19.88c0-.33-.12-.5-.37-.5H65.25a.33.33,0,0,0-.37.38l-2,13.13a.33.33,0,0,0,.38.38h2.13a.77.77,0,0,0,.38-.19A.66.66,0,0,0,66,32.5Z"/>
</svg>
