<svg id="icon-hands-heart" xmlns="http://www.w3.org/2000/svg" viewBox="0 0 80 57.79">
  <path
    d="M32.75,32.17A15.44,15.44,0,0,1,36,41.79v14a1.93,1.93,0,0,1-2,2H17.5a2.1,2.1,0,0,1-1.19-.37,1.59,1.59,0,0,1-.69-1.12,7,7,0,0,0-1.25-2.62l-13-16.87A5.62,5.62,0,0,1,0,33V5.79A3.84,3.84,0,0,1,1.19,3,3.84,3.84,0,0,1,4,1.79,3.85,3.85,0,0,1,6.81,3,3.85,3.85,0,0,1,8,5.79v18.5l11.25,13.5a1.57,1.57,0,0,0,1.38.75,2,2,0,0,0,1.5-.62l1.63-1.62A2,2,0,0,0,24.31,35,1.77,1.77,0,0,0,24,33.79l-4.75-6.37a4.13,4.13,0,0,1-.81-3A3.65,3.65,0,0,1,20,21.79,3.92,3.92,0,0,1,23,21a4,4,0,0,1,2.63,1.5ZM78.81,3A3.85,3.85,0,0,1,80,5.79V33a6,6,0,0,1-1.25,3.75L65.63,53.67a7,7,0,0,0-1.25,2.63,1.6,1.6,0,0,1-.69,1.13,2.11,2.11,0,0,1-1.19.38H46a1.93,1.93,0,0,1-2-2v-14a15.43,15.43,0,0,1,3.25-9.62l7.13-9.62A4,4,0,0,1,57,21a3.92,3.92,0,0,1,3,.75,3.66,3.66,0,0,1,1.56,2.63,4.14,4.14,0,0,1-.81,3L56,33.79A1.76,1.76,0,0,0,55.69,35a1.93,1.93,0,0,0,.56,1.25l1.63,1.63a2,2,0,0,0,1.5.63,1.57,1.57,0,0,0,1.38-.75L72,24.29V5.79A3.84,3.84,0,0,1,73.19,3a3.92,3.92,0,0,1,5.63,0Z"/>
  <path
    d="M55.56,5.94a9.11,9.11,0,0,1,.22,4.78,8.3,8.3,0,0,1-2.28,4.16L41.44,27.38a2,2,0,0,1-2.87,0L26.5,14.94a8.65,8.65,0,0,1-2.28-4.22,9.11,9.11,0,0,1,.22-4.78,8.45,8.45,0,0,1,2.69-4A7.91,7.91,0,0,1,30.94.13a8.42,8.42,0,0,1,4.19.31,8.87,8.87,0,0,1,3.63,2.31L40,4l1.25-1.25A8.86,8.86,0,0,1,44.88.44,8.42,8.42,0,0,1,49.06.13a7.91,7.91,0,0,1,3.81,1.81A8.46,8.46,0,0,1,55.56,5.94Z"/>
</svg>
