<svg id="icon-hand-dollar" xmlns="http://www.w3.org/2000/svg" viewBox="0 0 67.94 64">
  <path
    d="M67.94,44.13a4,4,0,0,1-1.31,3L48.75,62.25A7.29,7.29,0,0,1,44,64H1.88a1.8,1.8,0,0,1-1.31-.56A2,2,0,0,1,0,62V50a2,2,0,0,1,.56-1.44A1.8,1.8,0,0,1,1.88,48H8.5l5.38-4.75A13.26,13.26,0,0,1,22.63,40H41.5a3.67,3.67,0,0,1,2.94,1.44,3.6,3.6,0,0,1,.81,3.19,3.91,3.91,0,0,1-1.37,2.44,3.81,3.81,0,0,1-2.5.94H32.13a1.8,1.8,0,0,0-1.31.56,2.12,2.12,0,0,0,0,2.88,1.8,1.8,0,0,0,1.31.56h14a6.81,6.81,0,0,0,4.63-1.75l11-9.25a3.75,3.75,0,0,1,2.56-1,3.32,3.32,0,0,1,2.44,1A4,4,0,0,1,67.94,44.13ZM28.63,15.81a6.24,6.24,0,0,1-1.75-3.69,6.89,6.89,0,0,1,1.44-5.31A6.44,6.44,0,0,1,33,4.25V2a1.93,1.93,0,0,1,2-2h2a1.93,1.93,0,0,1,2,2V4.25a9.18,9.18,0,0,1,4,1.38,1.49,1.49,0,0,1,.56,1.13A1.51,1.51,0,0,1,43.13,8L41,10.13a1.39,1.39,0,0,1-1.75.25,3.69,3.69,0,0,0-1.37-.25h-4a1.1,1.1,0,0,0-.81.31,1,1,0,0,0-.31.69q0,.88.75,1L39.75,14a8.12,8.12,0,0,1,3.63,2.19,6.26,6.26,0,0,1,1.75,3.69,6.9,6.9,0,0,1-1.44,5.31A6.44,6.44,0,0,1,39,27.75V30a1.93,1.93,0,0,1-2,2H35a1.93,1.93,0,0,1-2-2V27.75a9.14,9.14,0,0,1-4-1.37,1.23,1.23,0,0,1-.62-1.12,1.69,1.69,0,0,1,.5-1.25L31,21.88a1.39,1.39,0,0,1,1.75-.25,3.64,3.64,0,0,0,1.38.25h4a1.1,1.1,0,0,0,.81-.31,1,1,0,0,0,.31-.69.87.87,0,0,0-.75-1L32.25,18A8.08,8.08,0,0,1,28.63,15.81Z"/>
</svg>
