<svg id="icon-skyscraper" xmlns="http://www.w3.org/2000/svg" viewBox="0 0 56 64">
  <path
    d="M56,59.5V64H0V59.5a1.44,1.44,0,0,1,.44-1.06A1.44,1.44,0,0,1,1.5,58H4V3A2.44,2.44,0,0,1,4.81.88,3.11,3.11,0,0,1,7,0H49.13a3,3,0,0,1,2.06.88A2.44,2.44,0,0,1,52,3V58h2.5A1.49,1.49,0,0,1,56,59.5ZM10,57.88H24V49.5A1.49,1.49,0,0,1,25.5,48h5A1.49,1.49,0,0,1,32,49.5v8.38H46.13V6.13L10,6ZM16,18.5v-5A1.49,1.49,0,0,1,17.5,12h5A1.49,1.49,0,0,1,24,13.5v5A1.49,1.49,0,0,1,22.5,20h-5A1.49,1.49,0,0,1,16,18.5ZM17.5,32h5A1.49,1.49,0,0,0,24,30.5v-5A1.49,1.49,0,0,0,22.5,24h-5A1.49,1.49,0,0,0,16,25.5v5A1.49,1.49,0,0,0,17.5,32ZM24,42.5v-5A1.49,1.49,0,0,0,22.5,36h-5A1.49,1.49,0,0,0,16,37.5v5A1.49,1.49,0,0,0,17.5,44h5A1.49,1.49,0,0,0,24,42.5ZM33.5,20h5A1.49,1.49,0,0,0,40,18.5v-5A1.49,1.49,0,0,0,38.5,12h-5A1.49,1.49,0,0,0,32,13.5v5A1.49,1.49,0,0,0,33.5,20Zm0,12h5A1.49,1.49,0,0,0,40,30.5v-5A1.49,1.49,0,0,0,38.5,24h-5A1.49,1.49,0,0,0,32,25.5v5A1.49,1.49,0,0,0,33.5,32Zm0,12h5A1.49,1.49,0,0,0,40,42.5v-5A1.49,1.49,0,0,0,38.5,36h-5A1.49,1.49,0,0,0,32,37.5v5A1.49,1.49,0,0,0,33.5,44Z"/>
</svg>
