<svg id="site-logo" xmlns="http://www.w3.org/2000/svg" viewBox="0 0 701.87 130.93">
  <defs>
    <style>
      .fill-blue {
        fill: #22409a;
      }
      .fill-gray-medium {
        fill: #666;
      }
      .fill-yellow {
        fill: #fede17;
      }
    </style>
  </defs>
  <g id="site-logo-name">
    <path
      class="fill-blue"
      d="M91.27,73.65V2.9h20.35a40.31,40.31,0,0,1,10.47,1.2,19.82,19.82,0,0,1,7.32,3.52,14.4,14.4,0,0,1,4.33,5.68,19.25,19.25,0,0,1,1.42,7.6,15.22,15.22,0,0,1-1,5.4,16.47,16.47,0,0,1-2.82,4.8,18.22,18.22,0,0,1-4.53,3.82,21.57,21.57,0,0,1-6.12,2.48q8.34,1.24,12.84,5.55a15,15,0,0,1,4.5,11.35,19.85,19.85,0,0,1-1.59,8.1,16.41,16.41,0,0,1-4.66,6.1,21.06,21.06,0,0,1-7.5,3.82,35.08,35.08,0,0,1-10.09,1.33ZM96.37,36h15.35a24.93,24.93,0,0,0,8.37-1.25,16.4,16.4,0,0,0,5.7-3.3,12.78,12.78,0,0,0,3.27-4.65,14,14,0,0,0,1.06-5.35q0-7.15-4.53-10.83T111.62,7H96.37Zm0,3.75v29.8h17.75q9.34,0,14.1-4T133,54.2a13.89,13.89,0,0,0-1.28-6A12.57,12.57,0,0,0,128,43.63a17.29,17.29,0,0,0-5.9-2.88,28.93,28.93,0,0,0-8-1Z"/>
    <path class="fill-blue" d="M160.46,69.3H194v4.35H155.36V2.9h5.1Z"/>
    <path
      class="fill-blue"
      d="M265.61,38.25a42.81,42.81,0,0,1-2.45,14.88,32.81,32.81,0,0,1-6.9,11.39,30.3,30.3,0,0,1-10.65,7.3,37.66,37.66,0,0,1-27.4,0,30.49,30.49,0,0,1-10.65-7.3,33.31,33.31,0,0,1-6.92-11.39,42.57,42.57,0,0,1-2.48-14.88,42.45,42.45,0,0,1,2.48-14.83A33.45,33.45,0,0,1,207.56,12,30.94,30.94,0,0,1,218.21,4.7a35.06,35.06,0,0,1,13.65-2.6,35.6,35.6,0,0,1,13.75,2.57A30.25,30.25,0,0,1,256.26,12a33.22,33.22,0,0,1,6.9,11.42A42.68,42.68,0,0,1,265.61,38.25Zm-5.3,0A40.28,40.28,0,0,0,258.26,25a28.57,28.57,0,0,0-5.77-10,24.81,24.81,0,0,0-9-6.28A30.33,30.33,0,0,0,231.86,6.5a29.85,29.85,0,0,0-11.52,2.17,25.41,25.41,0,0,0-9,6.28,28.41,28.41,0,0,0-5.85,10,40,40,0,0,0-2.08,13.3,39.88,39.88,0,0,0,2.08,13.32,28.41,28.41,0,0,0,5.85,10,25.08,25.08,0,0,0,9,6.25A30,30,0,0,0,231.86,70a30.52,30.52,0,0,0,11.65-2.15,24.5,24.5,0,0,0,9-6.25,28.57,28.57,0,0,0,5.77-10A40.15,40.15,0,0,0,260.31,38.25Z"/>
    <path class="fill-blue" d="M285.86,3.07a2.38,2.38,0,0,1,.85.78l45.8,61.3c-.1-1-.15-2-.15-2.9V2.9h4.5V73.65h-2.45a2.16,2.16,0,0,1-1.85-1l-46-61.4q.15,1.5.15,2.85V73.65h-4.45V2.9h2.5A2.91,2.91,0,0,1,285.86,3.07Z"/>
    <path
      class="fill-blue"
      d="M388.26,70.3a53.77,53.77,0,0,0,6.65-.38A34.69,34.69,0,0,0,405.39,67c1.55-.72,3.1-1.53,4.67-2.43v-19h-13.6a1.32,1.32,0,0,1-.92-.35,1.07,1.07,0,0,1-.38-.8v-2.8h19.55V66.7a46.54,46.54,0,0,1-5.5,3.3,36.22,36.22,0,0,1-6.1,2.42,46.89,46.89,0,0,1-7,1.5,59.27,59.27,0,0,1-8.2.53,36.81,36.81,0,0,1-14-2.57,30.85,30.85,0,0,1-10.85-7.31,32.88,32.88,0,0,1-7-11.42,42.5,42.5,0,0,1-2.5-14.9,42.21,42.21,0,0,1,2.5-14.87,32.36,32.36,0,0,1,7.1-11.4,31.21,31.21,0,0,1,11.18-7.31A40.2,40.2,0,0,1,389.06,2.1a47,47,0,0,1,7.48.55,35.32,35.32,0,0,1,6.37,1.62,30.71,30.71,0,0,1,5.5,2.65,38,38,0,0,1,4.9,3.63L412,12.75a1.4,1.4,0,0,1-1.25.75,1.93,1.93,0,0,1-.85-.2,10.67,10.67,0,0,1-2.17-1.4,23.89,23.89,0,0,0-3.85-2.3,31.83,31.83,0,0,0-6.08-2.15,35.72,35.72,0,0,0-8.85-1,33.47,33.47,0,0,0-12.45,2.2A26.4,26.4,0,0,0,367,15a27.78,27.78,0,0,0-6.05,10,38.81,38.81,0,0,0-2.13,13.25A39.49,39.49,0,0,0,361,51.7a28.74,28.74,0,0,0,6,10.07,26,26,0,0,0,9.3,6.33A31.49,31.49,0,0,0,388.26,70.3Z"/>
    <path
      class="fill-blue"
      d="M464.51,46v27.7h-16.9V46L421.21.8h14.9a5.52,5.52,0,0,1,3.5,1,7.6,7.6,0,0,1,2.1,2.63L452,25.65l2.3,4.7q1.05,2.15,1.85,4.25a39.29,39.29,0,0,1,1.8-4.3q1.05-2.14,2.25-4.65l10.2-21.2a6.29,6.29,0,0,1,.83-1.3A7,7,0,0,1,472.44,2,5.54,5.54,0,0,1,474,1.12,5.6,5.6,0,0,1,475.91.8h15Z"/>
    <path
      class="fill-blue"
      d="M553.71,73.65h-13.1a6.05,6.05,0,0,1-3.62-1A5.35,5.35,0,0,1,535,70l-4.3-12.7H503L498.71,70a5.81,5.81,0,0,1-5.5,3.65H480L508.21.8h17.3ZM506.91,45.8h19.9l-6.7-19.95-1.52-4.47c-.59-1.72-1.16-3.58-1.73-5.58-.53,2-1.08,3.92-1.65,5.65s-1.1,3.23-1.6,4.5Z"/>
    <path
      class="fill-blue"
      d="M570.36.9a5,5,0,0,1,1.35.37,4.87,4.87,0,0,1,1.15.78,12.47,12.47,0,0,1,1.25,1.35l34.6,43.75q-.19-2.1-.3-4.08c-.07-1.31-.1-2.55-.1-3.72V.8h14.9V73.65h-8.8a8.11,8.11,0,0,1-3.3-.6,7,7,0,0,1-2.6-2.2l-34.35-43.4c.1,1.27.18,2.51.25,3.72s.1,2.36.1,3.43V73.65h-14.9V.8h8.9A13.8,13.8,0,0,1,570.36.9Z"/>
    <path
      class="fill-blue"
      d="M669.51,61.45a28.78,28.78,0,0,0,6.2-.6,30,30,0,0,0,5.1-1.6v-11h-7.2a3.48,3.48,0,0,1-2.5-.85,2.83,2.83,0,0,1-.9-2.15V35.9h25.9V66.65a38,38,0,0,1-5.82,3.52,37,37,0,0,1-6.45,2.43,48.68,48.68,0,0,1-7.3,1.4,72.46,72.46,0,0,1-8.33.45,38.26,38.26,0,0,1-14.8-2.82A35.5,35.5,0,0,1,633.84,52,38.21,38.21,0,0,1,631,37.2a40.31,40.31,0,0,1,2.7-15,33.67,33.67,0,0,1,7.73-11.78,35,35,0,0,1,12.15-7.7A44,44,0,0,1,669.51,0a46.43,46.43,0,0,1,8.55.75,41.75,41.75,0,0,1,7.38,2.05,34.22,34.22,0,0,1,6.17,3.1,33.26,33.26,0,0,1,5,3.9l-4.9,7.45A5.46,5.46,0,0,1,690,18.9a4,4,0,0,1-2.13.6,5.83,5.83,0,0,1-3.1-1c-1.33-.8-2.59-1.49-3.77-2.08A24.14,24.14,0,0,0,677.41,15a23.61,23.61,0,0,0-3.9-.8,37.63,37.63,0,0,0-4.6-.25,21.07,21.07,0,0,0-8.55,1.67,18.41,18.41,0,0,0-6.47,4.73,21.27,21.27,0,0,0-4.13,7.32,29.47,29.47,0,0,0-1.45,9.53,30.56,30.56,0,0,0,1.6,10.3,22.12,22.12,0,0,0,4.43,7.6,18.61,18.61,0,0,0,6.7,4.72A21.53,21.53,0,0,0,669.51,61.45Z"/>
  </g>
  <g id="site-logo-tagline">
    <path
      class="fill-gray-medium"
      d="M111.84,112.93a13.7,13.7,0,0,1-.87,5,10.81,10.81,0,0,1-6.24,6.32,13.23,13.23,0,0,1-4.9.87H90.72V100.74h9.11a13,13,0,0,1,4.9.88,10.8,10.8,0,0,1,3.79,2.48A11,11,0,0,1,111,108,13.63,13.63,0,0,1,111.84,112.93Zm-3.39,0a12.15,12.15,0,0,0-.61-4,8.38,8.38,0,0,0-1.73-3,7.4,7.4,0,0,0-2.72-1.87,9.25,9.25,0,0,0-3.56-.65H94v19h5.79a9.44,9.44,0,0,0,3.56-.64,7.52,7.52,0,0,0,2.72-1.87,8.33,8.33,0,0,0,1.73-3A12.15,12.15,0,0,0,108.45,112.93Z"/>
    <path
      class="fill-gray-medium"
      d="M119.9,102.47a2.09,2.09,0,0,1-.18.83,2.47,2.47,0,0,1-.48.68,2.34,2.34,0,0,1-.69.47,2.12,2.12,0,0,1-.83.17,2.09,2.09,0,0,1-.83-.17,2.43,2.43,0,0,1-.68-.47,2.4,2.4,0,0,1-.46-.68,1.93,1.93,0,0,1-.17-.83,2,2,0,0,1,.17-.84,2.19,2.19,0,0,1,.46-.69,2.24,2.24,0,0,1,.68-.47,1.93,1.93,0,0,1,.83-.17,2,2,0,0,1,.83.17,2.17,2.17,0,0,1,.69.47,2.25,2.25,0,0,1,.48.69A2.22,2.22,0,0,1,119.9,102.47Zm-.68,5.41V125.1h-3V107.88Z"/>
    <path
      class="fill-gray-medium"
      d="M134.41,110.72a.66.66,0,0,1-.63.37,1.17,1.17,0,0,1-.57-.18c-.22-.13-.48-.27-.79-.42a8.24,8.24,0,0,0-1.12-.43,5.33,5.33,0,0,0-1.53-.19,4.45,4.45,0,0,0-1.37.19,3.25,3.25,0,0,0-1.05.54,2.35,2.35,0,0,0-.66.79,2.05,2.05,0,0,0-.23,1,1.59,1.59,0,0,0,.38,1.1,3.25,3.25,0,0,0,1,.77,10.14,10.14,0,0,0,1.43.57l1.64.52c.56.19,1.11.4,1.64.63a5.82,5.82,0,0,1,1.43.85,3.68,3.68,0,0,1,1.39,3A5.67,5.67,0,0,1,135,122a4.87,4.87,0,0,1-1.26,1.75,6.16,6.16,0,0,1-2,1.17,8.52,8.52,0,0,1-2.79.42,8.68,8.68,0,0,1-3.26-.58,8.22,8.22,0,0,1-2.48-1.51l.71-1.15a1.05,1.05,0,0,1,.32-.34.91.91,0,0,1,.49-.12,1.2,1.2,0,0,1,.65.23c.23.16.5.34.83.53a5.83,5.83,0,0,0,1.17.53,5.28,5.28,0,0,0,1.72.24,4.82,4.82,0,0,0,1.55-.23,3.49,3.49,0,0,0,1.11-.62,2.47,2.47,0,0,0,.65-.9,2.86,2.86,0,0,0,.21-1.09,1.76,1.76,0,0,0-.38-1.18,3.28,3.28,0,0,0-1-.8,8,8,0,0,0-1.44-.58c-.54-.16-1.09-.34-1.65-.52s-1.11-.39-1.65-.62a5.88,5.88,0,0,1-1.43-.87,4,4,0,0,1-1-1.31,4.1,4.1,0,0,1-.39-1.87,4.65,4.65,0,0,1,1.6-3.5A5.77,5.77,0,0,1,127.1,108a7.51,7.51,0,0,1,2.6-.41,8.43,8.43,0,0,1,3.06.53,7.22,7.22,0,0,1,2.33,1.47Z"/>
    <path
      class="fill-gray-medium"
      d="M144.53,125.37a4.16,4.16,0,0,1-3.14-1.14,4.53,4.53,0,0,1-1.1-3.28V110.41h-2.07a.68.68,0,0,1-.46-.16.64.64,0,0,1-.19-.5v-1.21l2.83-.35.69-5.32a.66.66,0,0,1,.7-.58h1.53v5.93h4.93v2.19h-4.93v10.34a2.18,2.18,0,0,0,.53,1.61,1.8,1.8,0,0,0,1.36.53,2.28,2.28,0,0,0,.82-.13,3.47,3.47,0,0,0,.61-.28,4.62,4.62,0,0,0,.43-.28.61.61,0,0,1,.31-.13.54.54,0,0,1,.43.29l.88,1.45a5.66,5.66,0,0,1-1.88,1.15A6.61,6.61,0,0,1,144.53,125.37Z"/>
    <path
      class="fill-gray-medium"
      d="M156,102.47a1.94,1.94,0,0,1-.18.83,2.47,2.47,0,0,1-.48.68,2.34,2.34,0,0,1-.69.47,2.12,2.12,0,0,1-.83.17,2,2,0,0,1-.82-.17,2.18,2.18,0,0,1-.68-.47,2.24,2.24,0,0,1-.47-.68,1.93,1.93,0,0,1-.17-.83,2,2,0,0,1,.17-.84,2.06,2.06,0,0,1,.47-.69,2,2,0,0,1,.68-.47,1.85,1.85,0,0,1,.82-.17,2,2,0,0,1,.83.17,2.17,2.17,0,0,1,.69.47,2.25,2.25,0,0,1,.48.69A2,2,0,0,1,156,102.47Zm-.68,5.41V125.1h-3V107.88Z"/>
    <path
      class="fill-gray-medium"
      d="M172.44,110.94a1.54,1.54,0,0,1-.27.29.63.63,0,0,1-.39.1,1,1,0,0,1-.55-.21c-.2-.14-.46-.3-.76-.47a6.5,6.5,0,0,0-1.11-.47,5.38,5.38,0,0,0-1.61-.21,5.25,5.25,0,0,0-2.23.45,4.27,4.27,0,0,0-1.62,1.3,5.89,5.89,0,0,0-1,2.06,10.19,10.19,0,0,0-.33,2.7,9.81,9.81,0,0,0,.36,2.78,6.07,6.07,0,0,0,1,2,4.34,4.34,0,0,0,1.57,1.26,4.85,4.85,0,0,0,2.09.43,5.42,5.42,0,0,0,1.81-.26,5.27,5.27,0,0,0,1.19-.59,9.68,9.68,0,0,0,.79-.58.93.93,0,0,1,.61-.27.66.66,0,0,1,.58.29l.85,1.11a6.6,6.6,0,0,1-2.81,2,9.84,9.84,0,0,1-3.55.64,7.44,7.44,0,0,1-3-.6,6.84,6.84,0,0,1-2.41-1.72,8.12,8.12,0,0,1-1.6-2.78,12.11,12.11,0,0,1-.05-7.31,7.77,7.77,0,0,1,1.56-2.81,7,7,0,0,1,2.54-1.85,8.63,8.63,0,0,1,3.47-.66,8.14,8.14,0,0,1,3.19.58,7.84,7.84,0,0,1,2.47,1.66Z"/>
    <path
      class="fill-gray-medium"
      d="M181.79,125.37a4.17,4.17,0,0,1-3.14-1.14,4.53,4.53,0,0,1-1.09-3.28V110.41h-2.08a.68.68,0,0,1-.46-.16.64.64,0,0,1-.18-.5v-1.21l2.82-.35.7-5.32a.62.62,0,0,1,.22-.42.67.67,0,0,1,.47-.16h1.53v5.93h4.93v2.19h-4.93v10.34a2.18,2.18,0,0,0,.53,1.61,1.82,1.82,0,0,0,1.36.53,2.33,2.33,0,0,0,.83-.13,3.36,3.36,0,0,0,.6-.28,4.62,4.62,0,0,0,.43-.28.64.64,0,0,1,.32-.13.51.51,0,0,1,.42.29l.89,1.45a5.71,5.71,0,0,1-1.89,1.15A6.61,6.61,0,0,1,181.79,125.37Z"/>
    <path
      class="fill-gray-medium"
      d="M203.55,100.47a8.8,8.8,0,0,1,2.89.46,6.65,6.65,0,0,1,2.32,1.33,6.41,6.41,0,0,1,1.54,2.14,7,7,0,0,1,.56,2.85,7.57,7.57,0,0,1-.41,2.52,10.13,10.13,0,0,1-1.1,2.21,16.17,16.17,0,0,1-1.61,2.06c-.61.67-1.25,1.34-1.93,2l-6.41,6.57a10.58,10.58,0,0,1,1.38-.3,9,9,0,0,1,1.34-.11h8.16a1,1,0,0,1,.78.29,1,1,0,0,1,.29.75v1.83H195.1v-1a1.8,1.8,0,0,1,.13-.66,1.66,1.66,0,0,1,.42-.63l7.8-7.83c.64-.66,1.23-1.29,1.77-1.9a14.4,14.4,0,0,0,1.36-1.83,8.27,8.27,0,0,0,.88-1.86,6.61,6.61,0,0,0,.31-2,4.93,4.93,0,0,0-.34-1.88,3.73,3.73,0,0,0-.94-1.34,4.06,4.06,0,0,0-1.39-.79,5.68,5.68,0,0,0-1.72-.26,5.18,5.18,0,0,0-1.7.27,4.57,4.57,0,0,0-1.39.76,4.41,4.41,0,0,0-1.6,2.61,1.35,1.35,0,0,1-.41.71,1.08,1.08,0,0,1-.71.22h-.18l-.22,0-1.58-.27a9,9,0,0,1,.92-3,7,7,0,0,1,1.73-2.15,7.23,7.23,0,0,1,2.39-1.32A9.25,9.25,0,0,1,203.55,100.47Z"/>
    <path class="fill-gray-medium" d="M242.33,125.1H239V114H225.89V125.1h-3.32V100.74h3.32V111.6H239V100.74h3.32Z"/>
    <path
      class="fill-gray-medium"
      d="M254.62,107.61a7.57,7.57,0,0,1,2.85.52,6.24,6.24,0,0,1,2.26,1.49,6.78,6.78,0,0,1,1.49,2.42,9.19,9.19,0,0,1,.54,3.27,1.85,1.85,0,0,1-.16,1,.62.62,0,0,1-.57.24H249.57a9.51,9.51,0,0,0,.44,2.84,5.9,5.9,0,0,0,1.12,2,4.54,4.54,0,0,0,1.7,1.21,5.8,5.8,0,0,0,2.21.4,6.72,6.72,0,0,0,2-.26,9.79,9.79,0,0,0,1.41-.57c.4-.21.73-.4,1-.57a1.29,1.29,0,0,1,.69-.27.68.68,0,0,1,.58.29l.85,1.11a6.16,6.16,0,0,1-1.35,1.18,8.35,8.35,0,0,1-1.67.82,10.49,10.49,0,0,1-1.85.49,10.93,10.93,0,0,1-1.88.16,8.6,8.6,0,0,1-3.29-.61,7.18,7.18,0,0,1-2.6-1.76,8.23,8.23,0,0,1-1.71-2.88,11.71,11.71,0,0,1-.61-4,10,10,0,0,1,.55-3.36,8,8,0,0,1,1.59-2.72,7.38,7.38,0,0,1,2.53-1.8A8.44,8.44,0,0,1,254.62,107.61Zm.07,2.22a4.68,4.68,0,0,0-3.46,1.27,6,6,0,0,0-1.56,3.51H259a6.25,6.25,0,0,0-.29-1.93,4.29,4.29,0,0,0-.85-1.51,3.89,3.89,0,0,0-1.37-1A4.64,4.64,0,0,0,254.69,109.83Z"/>
    <path
      class="fill-gray-medium"
      d="M265.62,125.1V107.88h1.8a.76.76,0,0,1,.81.63l.24,1.87a9.75,9.75,0,0,1,2.51-2,6.5,6.5,0,0,1,3.2-.76,6.08,6.08,0,0,1,2.49.47,4.9,4.9,0,0,1,1.81,1.32,5.84,5.84,0,0,1,1.09,2.07,8.92,8.92,0,0,1,.38,2.67v11h-3v-11a4.67,4.67,0,0,0-.89-3A3.35,3.35,0,0,0,273.3,110a5.1,5.1,0,0,0-2.51.65,8.32,8.32,0,0,0-2.15,1.75V125.1Z"/>
    <path
      class="fill-gray-medium"
      d="M284.52,125.1V107.88h1.8a.78.78,0,0,1,.82.63l.24,1.87a9.54,9.54,0,0,1,2.5-2,6.54,6.54,0,0,1,3.21-.76,6.08,6.08,0,0,1,2.49.47,4.79,4.79,0,0,1,1.8,1.32,5.85,5.85,0,0,1,1.1,2.07,8.93,8.93,0,0,1,.37,2.67v11h-3v-11a4.61,4.61,0,0,0-.89-3A3.32,3.32,0,0,0,292.2,110a5.07,5.07,0,0,0-2.5.65,8,8,0,0,0-2.15,1.75V125.1Z"/>
    <path
      class="fill-gray-medium"
      d="M310.24,107.61a7.65,7.65,0,0,1,2.86.52,6.41,6.41,0,0,1,2.26,1.49,6.93,6.93,0,0,1,1.49,2.42,9.42,9.42,0,0,1,.53,3.27,2,2,0,0,1-.15,1,.64.64,0,0,1-.58.24H305.19a9.51,9.51,0,0,0,.44,2.84,5.92,5.92,0,0,0,1.13,2,4.46,4.46,0,0,0,1.7,1.21,5.73,5.73,0,0,0,2.21.4,6.65,6.65,0,0,0,2-.26,10.45,10.45,0,0,0,1.42-.57q.6-.31,1-.57a1.32,1.32,0,0,1,.69-.27.68.68,0,0,1,.58.29l.85,1.11a5.88,5.88,0,0,1-1.34,1.18,8.18,8.18,0,0,1-1.68.82,10.39,10.39,0,0,1-1.84.49,11.13,11.13,0,0,1-1.89.16,8.6,8.6,0,0,1-3.29-.61,7.26,7.26,0,0,1-2.6-1.76,8.23,8.23,0,0,1-1.71-2.88,11.71,11.71,0,0,1-.61-4,10,10,0,0,1,.55-3.36,8,8,0,0,1,1.59-2.72,7.42,7.42,0,0,1,2.54-1.8A8.36,8.36,0,0,1,310.24,107.61Zm.07,2.22a4.67,4.67,0,0,0-3.45,1.27,6,6,0,0,0-1.57,3.51h9.37a6.25,6.25,0,0,0-.29-1.93,4.15,4.15,0,0,0-.85-1.51,3.8,3.8,0,0,0-1.37-1A4.64,4.64,0,0,0,310.31,109.83Z"/>
    <path
      class="fill-gray-medium"
      d="M321.24,130.93V107.88H323a.78.78,0,0,1,.82.63l.25,2a9.07,9.07,0,0,1,2.53-2.16,6.45,6.45,0,0,1,3.27-.82,6.23,6.23,0,0,1,2.69.57,5.45,5.45,0,0,1,2,1.69,8,8,0,0,1,1.31,2.76,14,14,0,0,1,.46,3.79,11.83,11.83,0,0,1-.51,3.54,8.67,8.67,0,0,1-1.46,2.84,6.78,6.78,0,0,1-5.46,2.58,6.48,6.48,0,0,1-2.73-.53,6.12,6.12,0,0,1-2-1.49v7.61ZM328.91,110a4.94,4.94,0,0,0-2.6.68,7.49,7.49,0,0,0-2,1.92V121a4.76,4.76,0,0,0,1.82,1.58,5.19,5.19,0,0,0,2.22.46,4.35,4.35,0,0,0,3.69-1.71,8.05,8.05,0,0,0,1.29-4.9,12.16,12.16,0,0,0-.3-2.89,5.64,5.64,0,0,0-.85-2,3.39,3.39,0,0,0-1.38-1.13A4.52,4.52,0,0,0,328.91,110Z"/>
    <path
      class="fill-gray-medium"
      d="M344.05,102.47a1.94,1.94,0,0,1-.18.83,2.24,2.24,0,0,1-.47.68,2.34,2.34,0,0,1-.69.47,2.12,2.12,0,0,1-.83.17,2.09,2.09,0,0,1-.83-.17,2.3,2.3,0,0,1-1.15-1.15,2.09,2.09,0,0,1-.17-.83,2.14,2.14,0,0,1,.64-1.53,2.24,2.24,0,0,1,.68-.47,1.93,1.93,0,0,1,.83-.17,2,2,0,0,1,.83.17,2.17,2.17,0,0,1,.69.47,2.2,2.2,0,0,1,.65,1.53Zm-.68,5.41V125.1h-3V107.88Z"/>
    <path
      class="fill-gray-medium"
      d="M348.71,125.1V107.88h1.8a.77.77,0,0,1,.82.63l.24,1.87a9.54,9.54,0,0,1,2.5-2,6.54,6.54,0,0,1,3.21-.76,6.08,6.08,0,0,1,2.49.47,4.79,4.79,0,0,1,1.8,1.32,5.85,5.85,0,0,1,1.1,2.07,8.93,8.93,0,0,1,.37,2.67v11h-3v-11a4.61,4.61,0,0,0-.9-3A3.32,3.32,0,0,0,356.4,110a5.08,5.08,0,0,0-2.51.65,8,8,0,0,0-2.15,1.75V125.1Z"/>
    <path
      class="fill-gray-medium"
      d="M391.82,120.07a.66.66,0,0,1,.49.22l1.3,1.41a10.34,10.34,0,0,1-3.63,2.7,12.31,12.31,0,0,1-5.14,1,12.05,12.05,0,0,1-4.78-.91,10.32,10.32,0,0,1-3.66-2.55,11.51,11.51,0,0,1-2.34-3.93,14.58,14.58,0,0,1-.84-5,13.71,13.71,0,0,1,.9-5.05,11.53,11.53,0,0,1,2.5-3.94,11.18,11.18,0,0,1,3.87-2.56,13.09,13.09,0,0,1,5-.91,11.09,11.09,0,0,1,8.1,3.09l-1.08,1.51a1.07,1.07,0,0,1-.27.29.77.77,0,0,1-.44.11.94.94,0,0,1-.47-.16l-.58-.41-.8-.5a5.83,5.83,0,0,0-1.09-.51,9.19,9.19,0,0,0-1.46-.41,10.94,10.94,0,0,0-1.92-.16,9.21,9.21,0,0,0-3.58.68,7.89,7.89,0,0,0-2.8,1.91,8.7,8.7,0,0,0-1.83,3,11.73,11.73,0,0,0-.65,4,11.88,11.88,0,0,0,.65,4.06,9.1,9.1,0,0,0,1.79,3,7.53,7.53,0,0,0,2.68,1.88,8.55,8.55,0,0,0,3.33.64,14.26,14.26,0,0,0,1.95-.12,8.43,8.43,0,0,0,1.61-.4,6.85,6.85,0,0,0,1.38-.69,10.92,10.92,0,0,0,1.28-1A.85.85,0,0,1,391.82,120.07Z"/>
    <path
      class="fill-gray-medium"
      d="M404.44,107.61a8.8,8.8,0,0,1,3.4.63,7.18,7.18,0,0,1,2.59,1.78,7.92,7.92,0,0,1,1.63,2.8,12.07,12.07,0,0,1,0,7.33,7.88,7.88,0,0,1-1.63,2.79,7.06,7.06,0,0,1-2.59,1.78,9.66,9.66,0,0,1-6.81,0,7.06,7.06,0,0,1-2.59-1.78,7.77,7.77,0,0,1-1.65-2.79,11.87,11.87,0,0,1,0-7.33,7.81,7.81,0,0,1,1.65-2.8,7.18,7.18,0,0,1,2.59-1.78A8.82,8.82,0,0,1,404.44,107.61Zm0,15.37a4.39,4.39,0,0,0,3.8-1.71,9.7,9.7,0,0,0,0-9.56,4.38,4.38,0,0,0-3.8-1.72,5.37,5.37,0,0,0-2.25.44,4.3,4.3,0,0,0-1.59,1.28,5.67,5.67,0,0,0-1,2,12.31,12.31,0,0,0,0,5.49,5.7,5.7,0,0,0,1,2,4.24,4.24,0,0,0,1.59,1.26A5.22,5.22,0,0,0,404.44,123Z"/>
    <path
      class="fill-gray-medium"
      d="M419,107.88v11a4.58,4.58,0,0,0,.9,3,3.37,3.37,0,0,0,2.72,1.07,5.21,5.21,0,0,0,2.5-.63,7.82,7.82,0,0,0,2.16-1.75v-12.7h3V125.1h-1.8a.76.76,0,0,1-.81-.63l-.24-1.85a9.58,9.58,0,0,1-2.52,2,6.62,6.62,0,0,1-3.19.75,6.27,6.27,0,0,1-2.5-.46,5.14,5.14,0,0,1-1.81-1.32,5.64,5.64,0,0,1-1.09-2.06,8.93,8.93,0,0,1-.37-2.67v-11Z"/>
    <path
      class="fill-gray-medium"
      d="M435.27,125.1V107.88h1.81a.76.76,0,0,1,.81.63l.24,1.87a9.58,9.58,0,0,1,2.51-2,6.5,6.5,0,0,1,3.2-.76,6.08,6.08,0,0,1,2.49.47,4.9,4.9,0,0,1,1.81,1.32,5.84,5.84,0,0,1,1.09,2.07,8.92,8.92,0,0,1,.38,2.67v11h-3v-11a4.67,4.67,0,0,0-.89-3A3.35,3.35,0,0,0,443,110a5.1,5.1,0,0,0-2.51.65,8.16,8.16,0,0,0-2.15,1.75V125.1Z"/>
    <path
      class="fill-gray-medium"
      d="M459.4,125.37a4.16,4.16,0,0,1-3.14-1.14,4.53,4.53,0,0,1-1.1-3.28V110.41h-2.07a.68.68,0,0,1-.46-.16.64.64,0,0,1-.19-.5v-1.21l2.83-.35.69-5.32a.66.66,0,0,1,.7-.58h1.53v5.93h4.93v2.19h-4.93v10.34a2.18,2.18,0,0,0,.53,1.61,1.8,1.8,0,0,0,1.36.53,2.24,2.24,0,0,0,.82-.13,3.47,3.47,0,0,0,.61-.28,4.62,4.62,0,0,0,.43-.28.61.61,0,0,1,.31-.13.54.54,0,0,1,.43.29l.88,1.45a5.66,5.66,0,0,1-1.88,1.15A6.61,6.61,0,0,1,459.4,125.37Z"/>
    <path
      class="fill-gray-medium"
      d="M471.91,130.18a1.63,1.63,0,0,1-.38.55,1.09,1.09,0,0,1-.71.2h-2.24l3.14-6.83-7.1-16.22h2.61a.92.92,0,0,1,.62.2,1.31,1.31,0,0,1,.32.43l4.61,10.84a7.41,7.41,0,0,1,.26.75c.07.25.14.51.19.77l.24-.77c.08-.25.17-.5.27-.76l4.48-10.83a.94.94,0,0,1,.34-.45.92.92,0,0,1,.54-.18h2.41Z"/>
    <path
      class="fill-gray-medium"
      d="M508.48,120.07a.67.67,0,0,1,.49.22l1.29,1.41a10.34,10.34,0,0,1-3.63,2.7,12.31,12.31,0,0,1-5.14,1,12.05,12.05,0,0,1-4.78-.91,10.19,10.19,0,0,1-3.65-2.55,11.53,11.53,0,0,1-2.35-3.93,14.58,14.58,0,0,1-.83-5,13.7,13.7,0,0,1,.89-5.05,11.41,11.41,0,0,1,2.51-3.94,11,11,0,0,1,3.87-2.56,13.05,13.05,0,0,1,5-.91,11.09,11.09,0,0,1,8.09,3.09l-1.07,1.51a1.26,1.26,0,0,1-.27.29.81.81,0,0,1-.45.11.91.91,0,0,1-.46-.16l-.59-.41c-.23-.15-.49-.32-.8-.5a5.54,5.54,0,0,0-1.09-.51,8.9,8.9,0,0,0-1.46-.41,10.85,10.85,0,0,0-1.92-.16,9.25,9.25,0,0,0-3.58.68,7.85,7.85,0,0,0-2.79,1.91,8.41,8.41,0,0,0-1.83,3,11.49,11.49,0,0,0-.66,4,11.64,11.64,0,0,0,.66,4.06,8.91,8.91,0,0,0,1.78,3,7.62,7.62,0,0,0,2.68,1.88,8.55,8.55,0,0,0,3.33.64,14.41,14.41,0,0,0,2-.12,8.32,8.32,0,0,0,1.6-.4,6.36,6.36,0,0,0,1.38-.69,10.15,10.15,0,0,0,1.28-1A.87.87,0,0,1,508.48,120.07Z"/>
    <path
      class="fill-gray-medium"
      d="M521.09,107.61a8.85,8.85,0,0,1,3.41.63,7.23,7.23,0,0,1,2.58,1.78,7.92,7.92,0,0,1,1.63,2.8,12.07,12.07,0,0,1,0,7.33,7.88,7.88,0,0,1-1.63,2.79,7.1,7.1,0,0,1-2.58,1.78,9.69,9.69,0,0,1-6.82,0,7.14,7.14,0,0,1-2.59-1.78,7.77,7.77,0,0,1-1.65-2.79,11.87,11.87,0,0,1,0-7.33,7.81,7.81,0,0,1,1.65-2.8,7.27,7.27,0,0,1,2.59-1.78A8.82,8.82,0,0,1,521.09,107.61Zm0,15.37a4.42,4.42,0,0,0,3.81-1.71,9.76,9.76,0,0,0,0-9.56,4.41,4.41,0,0,0-3.81-1.72,5.33,5.33,0,0,0-2.24.44,4.14,4.14,0,0,0-1.59,1.28,5.52,5.52,0,0,0-1,2,12.31,12.31,0,0,0,0,5.49,5.54,5.54,0,0,0,1,2,4.09,4.09,0,0,0,1.59,1.26A5.18,5.18,0,0,0,521.09,123Z"/>
    <path
      class="fill-gray-medium"
      d="M533,125.1V107.88h1.81a.76.76,0,0,1,.81.63l.22,1.77a8.57,8.57,0,0,1,2.14-1.92,5,5,0,0,1,2.74-.75,4.05,4.05,0,0,1,2.83,1,5.45,5.45,0,0,1,1.56,2.62,5.3,5.3,0,0,1,2.26-2.74,5.55,5.55,0,0,1,1.55-.65,7.28,7.28,0,0,1,1.68-.2A6.37,6.37,0,0,1,553,108a4.72,4.72,0,0,1,1.8,1.27,5.5,5.5,0,0,1,1.13,2,9.06,9.06,0,0,1,.39,2.78v11h-3v-11a4.63,4.63,0,0,0-.89-3.07,3.14,3.14,0,0,0-2.56-1,3.78,3.78,0,0,0-1.42.27,3.31,3.31,0,0,0-1.18.77,3.69,3.69,0,0,0-.81,1.28,5,5,0,0,0-.3,1.8v11h-3v-11a4.8,4.8,0,0,0-.83-3.1,2.94,2.94,0,0,0-2.43-1,3.77,3.77,0,0,0-2.08.61,6.6,6.6,0,0,0-1.76,1.64V125.1Z"/>
    <path
      class="fill-gray-medium"
      d="M560.94,125.1V107.88h1.8a.78.78,0,0,1,.82.63l.22,1.77a8.37,8.37,0,0,1,2.13-1.92,5,5,0,0,1,2.74-.75,4,4,0,0,1,2.83,1A5.37,5.37,0,0,1,573,111.2a5.35,5.35,0,0,1,.94-1.62,5.56,5.56,0,0,1,2.88-1.77,7.26,7.26,0,0,1,1.67-.2A6.3,6.3,0,0,1,581,108a4.83,4.83,0,0,1,1.81,1.27,5.64,5.64,0,0,1,1.13,2,9.06,9.06,0,0,1,.39,2.78v11h-3v-11a4.63,4.63,0,0,0-.88-3.07,3.18,3.18,0,0,0-2.57-1,3.78,3.78,0,0,0-1.42.27,3.31,3.31,0,0,0-1.18.77,3.69,3.69,0,0,0-.81,1.28,5,5,0,0,0-.29,1.8v11h-3v-11a4.86,4.86,0,0,0-.83-3.1,3,3,0,0,0-2.43-1,3.8,3.8,0,0,0-2.09.61,6.75,6.75,0,0,0-1.76,1.64V125.1Z"/>
    <path
      class="fill-gray-medium"
      d="M592.9,102.47a1.94,1.94,0,0,1-.18.83,2.47,2.47,0,0,1-.48.68,2.34,2.34,0,0,1-.69.47,2.09,2.09,0,0,1-.83.17,2,2,0,0,1-.82-.17,2.18,2.18,0,0,1-.68-.47,2.24,2.24,0,0,1-.47-.68,2.09,2.09,0,0,1-.17-.83,2.21,2.21,0,0,1,.17-.84,2.06,2.06,0,0,1,.47-.69,2,2,0,0,1,.68-.47,1.88,1.88,0,0,1,.82-.17,1.93,1.93,0,0,1,.83.17,2.17,2.17,0,0,1,.69.47,2.25,2.25,0,0,1,.48.69A2,2,0,0,1,592.9,102.47Zm-.68,5.41V125.1h-3V107.88Z"/>
    <path
      class="fill-gray-medium"
      d="M607.41,110.72a.65.65,0,0,1-.62.37,1.21,1.21,0,0,1-.58-.18c-.22-.13-.48-.27-.79-.42a7.76,7.76,0,0,0-1.12-.43,5.33,5.33,0,0,0-1.53-.19,4.49,4.49,0,0,0-1.37.19,3.25,3.25,0,0,0-1,.54,2.35,2.35,0,0,0-.66.79,2.17,2.17,0,0,0-.23,1,1.63,1.63,0,0,0,.38,1.1,3.37,3.37,0,0,0,1,.77,10.14,10.14,0,0,0,1.43.57l1.64.52c.56.19,1.11.4,1.64.63a5.82,5.82,0,0,1,1.43.85,3.68,3.68,0,0,1,1.39,3A5.67,5.67,0,0,1,608,122a4.65,4.65,0,0,1-1.26,1.75,6,6,0,0,1-2,1.17,8.44,8.44,0,0,1-2.79.42,8.68,8.68,0,0,1-3.26-.58,8.22,8.22,0,0,1-2.48-1.51l.71-1.15a1.05,1.05,0,0,1,.32-.34.93.93,0,0,1,.5-.12,1.17,1.17,0,0,1,.64.23c.23.16.51.34.83.53a5.83,5.83,0,0,0,1.17.53,5.3,5.3,0,0,0,1.73.24,4.75,4.75,0,0,0,1.54-.23,3.38,3.38,0,0,0,1.11-.62,2.47,2.47,0,0,0,.65-.9,2.87,2.87,0,0,0,.22-1.09,1.77,1.77,0,0,0-.39-1.18,3.17,3.17,0,0,0-1-.8,8.19,8.19,0,0,0-1.43-.58c-.54-.16-1.09-.34-1.65-.52s-1.11-.39-1.65-.62a5.76,5.76,0,0,1-1.44-.87,4,4,0,0,1-1-1.31,4.1,4.1,0,0,1-.38-1.87,4.63,4.63,0,0,1,.4-1.9,4.75,4.75,0,0,1,1.19-1.6,5.92,5.92,0,0,1,1.93-1.09,7.43,7.43,0,0,1,2.6-.41,8.37,8.37,0,0,1,3,.53,7.38,7.38,0,0,1,2.34,1.47Z"/>
    <path
      class="fill-gray-medium"
      d="M622.17,110.72a.67.67,0,0,1-.63.37,1.24,1.24,0,0,1-.58-.18c-.21-.13-.48-.27-.79-.42a7.6,7.6,0,0,0-1.11-.43,5.33,5.33,0,0,0-1.53-.19,4.56,4.56,0,0,0-1.38.19,3.2,3.2,0,0,0-1,.54,2.5,2.5,0,0,0-.67.79,2.17,2.17,0,0,0-.22,1,1.59,1.59,0,0,0,.38,1.1,3.25,3.25,0,0,0,1,.77,9.68,9.68,0,0,0,1.43.57l1.64.52c.56.19,1.1.4,1.64.63a5.82,5.82,0,0,1,1.43.85,4,4,0,0,1,1,1.25,3.85,3.85,0,0,1,.38,1.77,5.67,5.67,0,0,1-.42,2.2,4.87,4.87,0,0,1-1.26,1.75,6.16,6.16,0,0,1-2,1.17,8.52,8.52,0,0,1-2.79.42,8.77,8.77,0,0,1-3.27-.58,8.35,8.35,0,0,1-2.48-1.51l.72-1.15a1.05,1.05,0,0,1,.32-.34.89.89,0,0,1,.49-.12,1.2,1.2,0,0,1,.65.23c.23.16.5.34.82.53a6.21,6.21,0,0,0,1.18.53,5.28,5.28,0,0,0,1.72.24,4.82,4.82,0,0,0,1.55-.23,3.33,3.33,0,0,0,1.1-.62,2.39,2.39,0,0,0,.66-.9,2.86,2.86,0,0,0,.21-1.09,1.82,1.82,0,0,0-.38-1.18,3.28,3.28,0,0,0-1-.8,8,8,0,0,0-1.44-.58c-.54-.16-1.09-.34-1.65-.52s-1.11-.39-1.65-.62a5.52,5.52,0,0,1-1.43-.87,4.13,4.13,0,0,1-1-1.31,4.24,4.24,0,0,1-.38-1.87,4.65,4.65,0,0,1,1.6-3.5,5.77,5.77,0,0,1,1.92-1.09,7.51,7.51,0,0,1,2.6-.41,8.37,8.37,0,0,1,3,.53,7.38,7.38,0,0,1,2.34,1.47Z"/>
    <path
      class="fill-gray-medium"
      d="M631.11,102.47a1.94,1.94,0,0,1-.18.83,2.43,2.43,0,0,1-.47.68,2.34,2.34,0,0,1-.69.47,2.12,2.12,0,0,1-.83.17,2.09,2.09,0,0,1-.83-.17A2.3,2.3,0,0,1,627,103.3a2.09,2.09,0,0,1-.17-.83,2.14,2.14,0,0,1,.64-1.53,2.24,2.24,0,0,1,.68-.47,1.93,1.93,0,0,1,.83-.17,2,2,0,0,1,.83.17,2.17,2.17,0,0,1,.69.47,2.22,2.22,0,0,1,.47.69A2,2,0,0,1,631.11,102.47Zm-.68,5.41V125.1h-3V107.88Z"/>
    <path
      class="fill-gray-medium"
      d="M642.74,107.61a8.82,8.82,0,0,1,3.41.63,7.23,7.23,0,0,1,2.58,1.78,8.09,8.09,0,0,1,1.64,2.8,12.27,12.27,0,0,1,0,7.33,8,8,0,0,1-1.64,2.79,7.1,7.1,0,0,1-2.58,1.78,9.69,9.69,0,0,1-6.82,0,7.14,7.14,0,0,1-2.59-1.78,8.07,8.07,0,0,1-1.65-2.79,11.87,11.87,0,0,1,0-7.33,8.11,8.11,0,0,1,1.65-2.8,7.27,7.27,0,0,1,2.59-1.78A8.85,8.85,0,0,1,642.74,107.61Zm0,15.37a4.42,4.42,0,0,0,3.81-1.71,9.7,9.7,0,0,0,0-9.56,4.41,4.41,0,0,0-3.81-1.72,5.33,5.33,0,0,0-2.24.44,4.14,4.14,0,0,0-1.59,1.28,5.35,5.35,0,0,0-.95,2,11.93,11.93,0,0,0,0,5.49,5.38,5.38,0,0,0,.95,2,4.09,4.09,0,0,0,1.59,1.26A5.18,5.18,0,0,0,642.74,123Z"/>
    <path
      class="fill-gray-medium"
      d="M654.67,125.1V107.88h1.81a.76.76,0,0,1,.81.63l.24,1.87a9.58,9.58,0,0,1,2.51-2,6.5,6.5,0,0,1,3.2-.76,6.08,6.08,0,0,1,2.49.47,4.79,4.79,0,0,1,1.8,1.32,5.7,5.7,0,0,1,1.1,2.07,8.92,8.92,0,0,1,.38,2.67v11h-3v-11a4.67,4.67,0,0,0-.89-3,3.35,3.35,0,0,0-2.73-1.08,5.1,5.1,0,0,0-2.51.65,8.16,8.16,0,0,0-2.15,1.75V125.1Z"/>
    <path
      class="fill-gray-medium"
      d="M680.4,107.61a7.57,7.57,0,0,1,2.85.52,6.32,6.32,0,0,1,2.26,1.49A6.78,6.78,0,0,1,687,112a9.19,9.19,0,0,1,.54,3.27,2,2,0,0,1-.16,1,.63.63,0,0,1-.58.24H675.35a9.51,9.51,0,0,0,.44,2.84,5.74,5.74,0,0,0,1.12,2,4.54,4.54,0,0,0,1.7,1.21,5.76,5.76,0,0,0,2.21.4,6.65,6.65,0,0,0,2-.26,10,10,0,0,0,1.42-.57c.4-.21.73-.4,1-.57a1.26,1.26,0,0,1,.69-.27.65.65,0,0,1,.57.29l.85,1.11a5.88,5.88,0,0,1-1.34,1.18,8.35,8.35,0,0,1-1.67.82,10.49,10.49,0,0,1-1.85.49,11,11,0,0,1-1.89.16,8.59,8.59,0,0,1-3.28-.61,7.3,7.3,0,0,1-2.61-1.76,8.06,8.06,0,0,1-1.7-2.88,11.7,11.7,0,0,1-.62-4,10,10,0,0,1,.56-3.36,7.84,7.84,0,0,1,1.59-2.72,7.38,7.38,0,0,1,2.53-1.8A8.44,8.44,0,0,1,680.4,107.61Zm.06,2.22A4.67,4.67,0,0,0,677,111.1a6,6,0,0,0-1.56,3.51h9.36a6.25,6.25,0,0,0-.28-1.93,4.46,4.46,0,0,0-.85-1.51,3.89,3.89,0,0,0-1.37-1A4.69,4.69,0,0,0,680.46,109.83Z"/>
    <path
      class="fill-gray-medium"
      d="M691.39,125.1V107.88h1.74a.94.94,0,0,1,.68.19,1.13,1.13,0,0,1,.25.64l.21,2.69a7.8,7.8,0,0,1,2.18-2.81,4.8,4.8,0,0,1,3-1,5.06,5.06,0,0,1,1.29.16,4.34,4.34,0,0,1,1.08.46l-.39,2.26a.51.51,0,0,1-.53.42,2.54,2.54,0,0,1-.73-.16,4.57,4.57,0,0,0-1.38-.16,3.85,3.85,0,0,0-2.64.92,6.89,6.89,0,0,0-1.78,2.67v11Z"/>
  </g>
  <g id="site-logo-icon">
    <path
      class="fill-yellow"
      d="M69.75,5.34A7.43,7.43,0,0,1,72,10.8V67.38a7.68,7.68,0,0,1-7.71,7.71H7.71a7.43,7.43,0,0,1-5.46-2.25A7.43,7.43,0,0,1,0,67.38V10.8A7.43,7.43,0,0,1,2.25,5.34,7.43,7.43,0,0,1,7.71,3.09H64.29A7.43,7.43,0,0,1,69.75,5.34ZM64.29,10.8H7.71V67.38H64.29ZM59.14,27.2a2,2,0,0,0-.64-1.45L55,22.22a2,2,0,0,0-1.44-.65,1.53,1.53,0,0,0-1.29.65L29.41,44.72l-9.48-9.81a2.36,2.36,0,0,0-1.45-.48,1.72,1.72,0,0,0-1.28.48l-3.7,3.7a1.52,1.52,0,0,0-.64,1.28,2,2,0,0,0,.64,1.45L28.13,56a1.5,1.5,0,0,0,1.28.64A2,2,0,0,0,30.86,56L58.5,28.48A1.52,1.52,0,0,0,59.14,27.2Z"/>
  </g>
</svg>